<?xml version="1.0" encoding="utf-8"?>
<!-- Generator: Adobe Illustrator 21.1.0, SVG Export Plug-In . SVG Version: 6.00 Build 0)  -->
<svg version="1.1" id="Layer_1" xmlns="http://www.w3.org/2000/svg" xmlns:xlink="http://www.w3.org/1999/xlink" x="0px" y="0px"
	 viewBox="0 0 512 512" style="enable-background:new 0 0 512 512;" xml:space="preserve">
<path d="M511,255.5c0.1,77.8-35.3,151.3-96.2,199.7l-58.3-140.7l93.2-225.1C489.3,135.6,511.1,194.6,511,255.5z M320.1,391
	c-42.3,55-121.3,65.4-176.3,23s-65.4-121.3-23-176.3s121.3-65.4,176.3-23c8.6,6.6,16.4,14.4,23,23L400,44.8
	C357.5,15.5,307.1-0.1,255.5,0C114.4,0,0,114.4,0,255.5S114.4,511,255.5,511c36.2,0.1,72-7.6,105-22.5L320.1,391z M196.2,256.3
	c-32,13.6-46.8,50.6-33.2,82.5c13.4,31.5,49.6,46.5,81.3,33.7l0,0c31.9-13.7,46.7-50.7,33-82.6C263.8,258.6,227.8,243.7,196.2,256.3
	L196.2,256.3z"/>
</svg>
